<svg width="42" height="42" viewBox="0 0 42 42" fill="none" xmlns="http://www.w3.org/2000/svg">
<path d="M20.2432 4.00311C20.5232 3.3323 21.4768 3.3323 21.7568 4.00311L26.011 14.1954C26.1291 14.4782 26.3959 14.6714 26.7023 14.6959L37.7447 15.5781C38.4714 15.6361 38.7661 16.5399 38.2124 17.0125L29.7993 24.1939C29.5659 24.3931 29.4639 24.7058 29.5352 25.0037L32.1056 35.7412C32.2748 36.4479 31.5032 37.0064 30.881 36.6277L21.4273 30.8737C21.1649 30.7141 20.8351 30.7141 20.5727 30.8737L11.119 36.6277C10.4967 37.0064 9.72524 36.4479 9.89441 35.7412L12.4647 25.0037C12.5361 24.7058 12.4341 24.3931 12.2007 24.1939L3.78759 17.0125C3.23387 16.5399 3.52856 15.6361 4.25532 15.5781L15.2977 14.6959C15.6041 14.6714 15.8709 14.4782 15.989 14.1954L20.2432 4.00311Z" fill="#FFBC1F"/>
</svg>
