<svg width="42" height="42" viewBox="0 0 42 42" fill="none" xmlns="http://www.w3.org/2000/svg">
<path d="M20.7046 4.1957C20.8135 3.93477 21.1865 3.93477 21.2954 4.1957L25.5496 14.388C25.7401 14.8443 26.1701 15.155 26.6625 15.1943L37.7049 16.0765C37.9909 16.0993 38.1005 16.4506 37.8878 16.6322L29.4747 23.8136C29.0986 24.1346 28.9338 24.6389 29.049 25.1201L31.6193 35.8576C31.6838 36.1271 31.3877 36.3508 31.141 36.2006L21.6872 30.4466C21.2652 30.1898 20.7348 30.1898 20.3128 30.4466L10.859 36.2006C10.6123 36.3508 10.3162 36.1271 10.3807 35.8576L12.951 25.1201C13.0662 24.6389 12.9014 24.1345 12.5253 23.8136L4.1122 16.6322C3.89947 16.4506 4.00913 16.0993 4.29514 16.0765L15.3375 15.1943C15.8299 15.155 16.2599 14.8443 16.4504 14.388L20.7046 4.1957Z" stroke="#FFBC1F"/>
</svg>
